<mxfile host="app.diagrams.net" modified="2023-07-12T05:47:03.612Z" agent="Mozilla/5.0 (X11; Ubuntu; Linux x86_64; rv:109.0) Gecko/20100101 Firefox/115.0" version="21.6.1" etag="jzzqKNhdBuDrCI-Y_a6I" type="github">
  <diagram name="Page-1" id="K0WAjGH_iA_Ia-yU8khX">
    <mxGraphModel>
      <root>
        <mxCell id="0" />
        <mxCell id="1" parent="0" />
      </root>
    </mxGraphModel>
  </diagram>
</mxfile>
